<?xml version="1.0"?>
<svg width="5000" height="3300" xmlns="http://www.w3.org/2000/svg" xmlns:svg="http://www.w3.org/2000/svg" enable-background="new 0 0 5000 3300" version="1.1" xml:space="preserve">
 <g class="layer">
  <title>Layer 1</title>
  <g id="svg_1">
   <path d="m2373.4,2052.99c35.04,33.23 62.92,72.53 83.62,117.78c20.61,45.26 31.48,93.83 32.63,145.91c0.8,36.19 -3.32,71.59 -12.36,106.1c-9.03,34.91 -22.72,67.12 -40.76,97.23c-18.04,30.11 -40.45,57.01 -66.93,80.6c-26.48,23.89 -57.06,42.97 -91.04,57.83l3.46,197.17c63.41,-18.31 118.9,-46.54 166.57,-84.7c47.27,-37.85 86.52,-81.63 117.63,-131.13c31.11,-49.5 54.15,-102.42 69.2,-158.87s21.71,-112.71 20.49,-168.19c-1.16,-52.39 -8.68,-102.83 -22.65,-151.04c-13.97,-48.2 -33.37,-93.08 -57.89,-134.65c-24.52,-41.47 -53.87,-79.23 -88.13,-113.38c-33.86,-33.96 -71.61,-62.83 -112.94,-86.42c-41.33,-23.59 -85.54,-41.62 -132.84,-54.48c-47.19,-12.76 -96.43,-18.37 -147.32,-17.25c-50.89,1.13 -99.83,8.91 -146.41,23.74c-46.58,14.83 -90.05,34.8 -130.3,60.3s-76.38,56 -109.01,91.33c-32.32,35.42 -60.36,74.65 -83.33,117.17c-22.97,42.52 -40.36,88.31 -52.18,137.09s-17.1,99.5 -15.95,151.89c1.23,55.79 10.77,111.39 28.8,167.2c18.14,55.71 43.79,107.66 77.36,155.63c33.57,48.07 74.7,89.77 123.01,125.81c48.3,35.74 103.79,61.52 166.15,77.34l-4.38,-198.15c-35,-13.03 -66,-31.05 -93.51,-53.75s-51.09,-48.58 -70.13,-77.57c-19.35,-29.28 -33.85,-60.87 -44.11,-95.05c-10.26,-34.08 -15.94,-69.26 -16.73,-105.16c-1.15,-52.09 7.57,-101.09 26.15,-147.21c18.58,-46.12 44.7,-86.61 78.34,-121.36c33.54,-34.75 73.43,-62.64 119.58,-83.66c46.15,-20.93 96.52,-31.84 150.51,-33.04c53.99,-1.19 104.79,7.48 152.12,26.34c46.84,19.17 88.22,45.26 123.27,78.59z" id="svg_2" transform="rotate(-141.249 2106.44 2309.18)">LAB</path>
   <polygon id="svg_3" points="2481.7611694335938,1275.6980285644531 2755.6304321289062,1271.6062316894531 2202.0139770507812,2031.0610656738281 2349.9426879882812,2138.9640197753906 2944.4248657226562,1323.3911437988281 3813.4077758789062,2513.9427795410156 3961.1104125976562,2405.9249572753906 3129.3887329101562,1266.0220031738281 3533.3435668945312,1259.9867248535156 3530.4663696289062,1067.4082946777344 3126.5115356445312,1073.4436340332031 3539.7852172851562,506.30645751953125 3391.9566040039062,398.40248107910156 2944.3784790039062,1012.3579406738281 2397.9354858398438,263.8372497558594 2250.2280883789062,371.5558776855469 2766.2515258789062,1078.8261413574219 2478.8837280273438,1083.1196594238281 "/>
   <polygon id="svg_4" points="4345.618957519531,785.8211212158203 4801.917785644531,785.8211212158203 4801.917785644531,620.2212677001953 4345.618957519531,620.2212677001953 4345.618957519531,338.7213592529297 4874.017395019531,338.7213592529297 4874.017395019531,171.5209197998047 4153.018371582031,171.5209197998047 4153.018371582031,1223.5209503173828 4881.118469238281,1223.5209503173828 4881.118469238281,1057.3209991455078 4345.618957519531,1057.3209991455078 " transform="rotate(-180 4516.82 697.522)"/>
   <polygon id="svg_5" points="6638.061648256518,4579.7808814991195 6064.860964662768,3861.18093643076 5899.261355287768,3861.18093643076 5899.261355287768,4913.1807838428695 6091.860964662768,4913.1807838428695 6091.860964662768,4194.581113432713 6664.061648256518,4913.1807838428695 6829.761355287768,4913.1807838428695 6829.761355287768,3861.18093643076 6638.061648256518,3861.18093643076 " transform="matrix(0.00266289 0.999996 -0.999996 0.00266289 4952.15 -3594.56)"/>
   <path d="m80.07,58.8l-1.5,1052.6l189.5,0l0,-194.1l422.3,0l144.8,194.1l225.1,0l-778.1,-1052.6l-202.1,0zm506,718.6l-317.7,0l0,-445.6l3.1,0l23.9,56.4l290.7,389.2z" id="svg_6"/>
   <rect height="174.5" id="svg_7" width="190.1" x="4704.99" y="3048.26"/>
   <rect height="156.4" id="svg_8" transform="rotate(9.03095 888.445 670.796) matrix(0.714213 0.699929 -0.699929 0.714213 1971.72 -2178.99)" width="886.9" x="777.51" y="2715.37">LAB</rect>
   <rect height="156.4" id="svg_14" transform="matrix(0.0100944 0.999949 -0.999949 0.0100944 3382.61 1008.01)" width="886.9" x="-267.68" y="-272.23">LAB</rect>
  </g>
  <text fill="#000000" font-family="Serif" font-size="24" id="svg_12" stroke-width="0" text-anchor="middle" transform="matrix(1.33333 0 0 1 -919.054 0)" x="2770.83" xml:space="preserve" y="2916.67"/>
 </g>

</svg>